<mxfile host="app.diagrams.net" modified="2024-03-29T16:22:27.578Z" agent="Mozilla/5.0 (Windows NT 10.0; Win64; x64) AppleWebKit/537.36 (KHTML, like Gecko) Chrome/123.0.0.0 Safari/537.36" etag="RD7g8XB4GGxF7vwMtpkn" version="23.1.5" type="device">
  <diagram name="Page-1" id="Cv3YOdcuJNcbwwFZrNBa">
    <mxGraphModel dx="3108" dy="142" grid="1" gridSize="10" guides="1" tooltips="1" connect="1" arrows="1" fold="1" page="1" pageScale="1" pageWidth="1169" pageHeight="827" math="0" shadow="0">
      <root>
        <mxCell id="0" />
        <mxCell id="1" parent="0" />
        <mxCell id="9SKqTit1ZYMC5olBR_RQ-48" value="Start App" style="whiteSpace=wrap;html=1;aspect=fixed;" vertex="1" parent="1">
          <mxGeometry y="960" width="80" height="80" as="geometry" />
        </mxCell>
        <mxCell id="9SKqTit1ZYMC5olBR_RQ-61" style="edgeStyle=orthogonalEdgeStyle;rounded=0;orthogonalLoop=1;jettySize=auto;html=1;entryX=0;entryY=0.5;entryDx=0;entryDy=0;" edge="1" parent="1" source="9SKqTit1ZYMC5olBR_RQ-52" target="9SKqTit1ZYMC5olBR_RQ-59">
          <mxGeometry relative="1" as="geometry" />
        </mxCell>
        <mxCell id="9SKqTit1ZYMC5olBR_RQ-94" value="YES" style="edgeLabel;html=1;align=center;verticalAlign=middle;resizable=0;points=[];" vertex="1" connectable="0" parent="9SKqTit1ZYMC5olBR_RQ-61">
          <mxGeometry x="-0.149" y="2" relative="1" as="geometry">
            <mxPoint as="offset" />
          </mxGeometry>
        </mxCell>
        <mxCell id="9SKqTit1ZYMC5olBR_RQ-98" style="edgeStyle=orthogonalEdgeStyle;rounded=0;orthogonalLoop=1;jettySize=auto;html=1;entryX=0.5;entryY=0;entryDx=0;entryDy=0;" edge="1" parent="1" source="9SKqTit1ZYMC5olBR_RQ-52" target="9SKqTit1ZYMC5olBR_RQ-97">
          <mxGeometry relative="1" as="geometry" />
        </mxCell>
        <mxCell id="9SKqTit1ZYMC5olBR_RQ-99" value="NO" style="edgeLabel;html=1;align=center;verticalAlign=middle;resizable=0;points=[];" vertex="1" connectable="0" parent="9SKqTit1ZYMC5olBR_RQ-98">
          <mxGeometry x="-0.0288" y="-2" relative="1" as="geometry">
            <mxPoint as="offset" />
          </mxGeometry>
        </mxCell>
        <mxCell id="9SKqTit1ZYMC5olBR_RQ-52" value="First&lt;br&gt;Time?" style="rhombus;whiteSpace=wrap;html=1;" vertex="1" parent="1">
          <mxGeometry x="180" y="955" width="90" height="90" as="geometry" />
        </mxCell>
        <mxCell id="9SKqTit1ZYMC5olBR_RQ-59" value="Create New&lt;br&gt;Database" style="whiteSpace=wrap;html=1;aspect=fixed;fillColor=#f8cecc;strokeColor=#b85450;" vertex="1" parent="1">
          <mxGeometry x="440" y="960" width="80" height="80" as="geometry" />
        </mxCell>
        <mxCell id="9SKqTit1ZYMC5olBR_RQ-64" style="edgeStyle=orthogonalEdgeStyle;rounded=0;orthogonalLoop=1;jettySize=auto;html=1;entryX=-0.04;entryY=0.51;entryDx=0;entryDy=0;entryPerimeter=0;" edge="1" parent="1" source="9SKqTit1ZYMC5olBR_RQ-48" target="9SKqTit1ZYMC5olBR_RQ-52">
          <mxGeometry relative="1" as="geometry" />
        </mxCell>
        <mxCell id="9SKqTit1ZYMC5olBR_RQ-65" value="Add&amp;nbsp; Record(s)" style="whiteSpace=wrap;html=1;aspect=fixed;" vertex="1" parent="1">
          <mxGeometry x="440" y="1260.5" width="80" height="80" as="geometry" />
        </mxCell>
        <mxCell id="9SKqTit1ZYMC5olBR_RQ-69" value="Import&lt;br&gt;Database" style="whiteSpace=wrap;html=1;aspect=fixed;fillColor=#f5f5f5;fontColor=#333333;strokeColor=#666666;" vertex="1" parent="1">
          <mxGeometry x="440" y="1140" width="80" height="80" as="geometry" />
        </mxCell>
        <mxCell id="9SKqTit1ZYMC5olBR_RQ-93" style="edgeStyle=orthogonalEdgeStyle;rounded=0;orthogonalLoop=1;jettySize=auto;html=1;entryX=0.5;entryY=0;entryDx=0;entryDy=0;" edge="1" parent="1" source="9SKqTit1ZYMC5olBR_RQ-91" target="9SKqTit1ZYMC5olBR_RQ-48">
          <mxGeometry relative="1" as="geometry">
            <Array as="points">
              <mxPoint x="640" y="880" />
              <mxPoint x="40" y="880" />
            </Array>
          </mxGeometry>
        </mxCell>
        <mxCell id="9SKqTit1ZYMC5olBR_RQ-91" value="Set Master&lt;br&gt;Password" style="whiteSpace=wrap;html=1;aspect=fixed;" vertex="1" parent="1">
          <mxGeometry x="600" y="960" width="80" height="80" as="geometry" />
        </mxCell>
        <mxCell id="9SKqTit1ZYMC5olBR_RQ-92" style="edgeStyle=orthogonalEdgeStyle;rounded=0;orthogonalLoop=1;jettySize=auto;html=1;entryX=-0.041;entryY=0.506;entryDx=0;entryDy=0;entryPerimeter=0;" edge="1" parent="1" source="9SKqTit1ZYMC5olBR_RQ-59" target="9SKqTit1ZYMC5olBR_RQ-91">
          <mxGeometry relative="1" as="geometry" />
        </mxCell>
        <mxCell id="9SKqTit1ZYMC5olBR_RQ-100" style="edgeStyle=orthogonalEdgeStyle;rounded=0;orthogonalLoop=1;jettySize=auto;html=1;entryX=0;entryY=0.5;entryDx=0;entryDy=0;" edge="1" parent="1" source="9SKqTit1ZYMC5olBR_RQ-97" target="9SKqTit1ZYMC5olBR_RQ-65">
          <mxGeometry relative="1" as="geometry" />
        </mxCell>
        <mxCell id="9SKqTit1ZYMC5olBR_RQ-104" style="edgeStyle=orthogonalEdgeStyle;rounded=0;orthogonalLoop=1;jettySize=auto;html=1;entryX=0.5;entryY=0;entryDx=0;entryDy=0;" edge="1" parent="1" source="9SKqTit1ZYMC5olBR_RQ-97" target="9SKqTit1ZYMC5olBR_RQ-103">
          <mxGeometry relative="1" as="geometry" />
        </mxCell>
        <mxCell id="9SKqTit1ZYMC5olBR_RQ-105" value="NO" style="edgeLabel;html=1;align=center;verticalAlign=middle;resizable=0;points=[];" vertex="1" connectable="0" parent="9SKqTit1ZYMC5olBR_RQ-104">
          <mxGeometry x="-0.094" y="-1" relative="1" as="geometry">
            <mxPoint as="offset" />
          </mxGeometry>
        </mxCell>
        <mxCell id="9SKqTit1ZYMC5olBR_RQ-97" value="Auth?&lt;br&gt;UUID3" style="rhombus;whiteSpace=wrap;html=1;fillColor=#f8cecc;strokeColor=#b85450;" vertex="1" parent="1">
          <mxGeometry x="180" y="1256" width="90" height="90" as="geometry" />
        </mxCell>
        <mxCell id="9SKqTit1ZYMC5olBR_RQ-101" style="edgeStyle=orthogonalEdgeStyle;rounded=0;orthogonalLoop=1;jettySize=auto;html=1;entryX=-0.046;entryY=0.494;entryDx=0;entryDy=0;entryPerimeter=0;" edge="1" parent="1" source="9SKqTit1ZYMC5olBR_RQ-97" target="9SKqTit1ZYMC5olBR_RQ-69">
          <mxGeometry relative="1" as="geometry">
            <Array as="points">
              <mxPoint x="390" y="1301" />
              <mxPoint x="390" y="1179" />
            </Array>
          </mxGeometry>
        </mxCell>
        <mxCell id="9SKqTit1ZYMC5olBR_RQ-102" value="YES" style="edgeLabel;html=1;align=center;verticalAlign=middle;resizable=0;points=[];" vertex="1" connectable="0" parent="9SKqTit1ZYMC5olBR_RQ-101">
          <mxGeometry x="-0.4895" relative="1" as="geometry">
            <mxPoint as="offset" />
          </mxGeometry>
        </mxCell>
        <mxCell id="9SKqTit1ZYMC5olBR_RQ-103" value="Authentication&lt;br&gt;Error!" style="ellipse;whiteSpace=wrap;html=1;" vertex="1" parent="1">
          <mxGeometry x="185" y="1430" width="80" height="80" as="geometry" />
        </mxCell>
        <mxCell id="9SKqTit1ZYMC5olBR_RQ-106" value="Search&lt;br&gt;Record(s)" style="whiteSpace=wrap;html=1;aspect=fixed;" vertex="1" parent="1">
          <mxGeometry x="440" y="1380" width="80" height="80" as="geometry" />
        </mxCell>
        <mxCell id="9SKqTit1ZYMC5olBR_RQ-107" style="edgeStyle=orthogonalEdgeStyle;rounded=0;orthogonalLoop=1;jettySize=auto;html=1;entryX=-0.02;entryY=0.446;entryDx=0;entryDy=0;entryPerimeter=0;" edge="1" parent="1" source="9SKqTit1ZYMC5olBR_RQ-97" target="9SKqTit1ZYMC5olBR_RQ-106">
          <mxGeometry relative="1" as="geometry">
            <Array as="points">
              <mxPoint x="390" y="1301" />
              <mxPoint x="390" y="1416" />
            </Array>
          </mxGeometry>
        </mxCell>
        <mxCell id="9SKqTit1ZYMC5olBR_RQ-109" value="Export Database" style="whiteSpace=wrap;html=1;aspect=fixed;fillColor=#f5f5f5;fontColor=#333333;strokeColor=#666666;" vertex="1" parent="1">
          <mxGeometry x="440" y="1500" width="80" height="80" as="geometry" />
        </mxCell>
        <mxCell id="9SKqTit1ZYMC5olBR_RQ-110" style="edgeStyle=orthogonalEdgeStyle;rounded=0;orthogonalLoop=1;jettySize=auto;html=1;entryX=-0.046;entryY=0.536;entryDx=0;entryDy=0;entryPerimeter=0;" edge="1" parent="1" source="9SKqTit1ZYMC5olBR_RQ-97" target="9SKqTit1ZYMC5olBR_RQ-109">
          <mxGeometry relative="1" as="geometry">
            <Array as="points">
              <mxPoint x="390" y="1301" />
              <mxPoint x="390" y="1543" />
            </Array>
          </mxGeometry>
        </mxCell>
        <mxCell id="9SKqTit1ZYMC5olBR_RQ-112" value="PasswordRecord" style="swimlane;fontStyle=1;align=center;verticalAlign=top;childLayout=stackLayout;horizontal=1;startSize=26;horizontalStack=0;resizeParent=1;resizeParentMax=0;resizeLast=0;collapsible=1;marginBottom=0;whiteSpace=wrap;html=1;fillColor=#d5e8d4;strokeColor=#82b366;" vertex="1" parent="1">
          <mxGeometry x="40" y="1680" width="160" height="164" as="geometry" />
        </mxCell>
        <mxCell id="9SKqTit1ZYMC5olBR_RQ-125" value="+ title: string" style="text;strokeColor=none;fillColor=none;align=left;verticalAlign=top;spacingLeft=4;spacingRight=4;overflow=hidden;rotatable=0;points=[[0,0.5],[1,0.5]];portConstraint=eastwest;whiteSpace=wrap;html=1;" vertex="1" parent="9SKqTit1ZYMC5olBR_RQ-112">
          <mxGeometry y="26" width="160" height="26" as="geometry" />
        </mxCell>
        <mxCell id="9SKqTit1ZYMC5olBR_RQ-113" value="+ username: string" style="text;strokeColor=none;fillColor=none;align=left;verticalAlign=top;spacingLeft=4;spacingRight=4;overflow=hidden;rotatable=0;points=[[0,0.5],[1,0.5]];portConstraint=eastwest;whiteSpace=wrap;html=1;" vertex="1" parent="9SKqTit1ZYMC5olBR_RQ-112">
          <mxGeometry y="52" width="160" height="26" as="geometry" />
        </mxCell>
        <mxCell id="9SKqTit1ZYMC5olBR_RQ-116" value="+ password: string" style="text;strokeColor=none;fillColor=none;align=left;verticalAlign=top;spacingLeft=4;spacingRight=4;overflow=hidden;rotatable=0;points=[[0,0.5],[1,0.5]];portConstraint=eastwest;whiteSpace=wrap;html=1;" vertex="1" parent="9SKqTit1ZYMC5olBR_RQ-112">
          <mxGeometry y="78" width="160" height="26" as="geometry" />
        </mxCell>
        <mxCell id="9SKqTit1ZYMC5olBR_RQ-117" value="+ confirm: string" style="text;strokeColor=none;fillColor=none;align=left;verticalAlign=top;spacingLeft=4;spacingRight=4;overflow=hidden;rotatable=0;points=[[0,0.5],[1,0.5]];portConstraint=eastwest;whiteSpace=wrap;html=1;" vertex="1" parent="9SKqTit1ZYMC5olBR_RQ-112">
          <mxGeometry y="104" width="160" height="26" as="geometry" />
        </mxCell>
        <mxCell id="9SKqTit1ZYMC5olBR_RQ-114" value="" style="line;strokeWidth=1;fillColor=none;align=left;verticalAlign=middle;spacingTop=-1;spacingLeft=3;spacingRight=3;rotatable=0;labelPosition=right;points=[];portConstraint=eastwest;strokeColor=inherit;" vertex="1" parent="9SKqTit1ZYMC5olBR_RQ-112">
          <mxGeometry y="130" width="160" height="8" as="geometry" />
        </mxCell>
        <mxCell id="9SKqTit1ZYMC5olBR_RQ-115" value="+ method(type): type" style="text;strokeColor=none;fillColor=none;align=left;verticalAlign=top;spacingLeft=4;spacingRight=4;overflow=hidden;rotatable=0;points=[[0,0.5],[1,0.5]];portConstraint=eastwest;whiteSpace=wrap;html=1;" vertex="1" parent="9SKqTit1ZYMC5olBR_RQ-112">
          <mxGeometry y="138" width="160" height="26" as="geometry" />
        </mxCell>
        <mxCell id="9SKqTit1ZYMC5olBR_RQ-134" value="Database" style="swimlane;fontStyle=1;align=center;verticalAlign=top;childLayout=stackLayout;horizontal=1;startSize=26;horizontalStack=0;resizeParent=1;resizeParentMax=0;resizeLast=0;collapsible=1;marginBottom=0;whiteSpace=wrap;html=1;fillColor=#d5e8d4;strokeColor=#82b366;" vertex="1" parent="1">
          <mxGeometry x="280" y="1680" width="360" height="320" as="geometry" />
        </mxCell>
        <mxCell id="9SKqTit1ZYMC5olBR_RQ-135" value="+ machine_id: string" style="text;strokeColor=none;fillColor=none;align=left;verticalAlign=top;spacingLeft=4;spacingRight=4;overflow=hidden;rotatable=0;points=[[0,0.5],[1,0.5]];portConstraint=eastwest;whiteSpace=wrap;html=1;" vertex="1" parent="9SKqTit1ZYMC5olBR_RQ-134">
          <mxGeometry y="26" width="360" height="26" as="geometry" />
        </mxCell>
        <mxCell id="9SKqTit1ZYMC5olBR_RQ-136" value="+ master_password: string" style="text;strokeColor=none;fillColor=none;align=left;verticalAlign=top;spacingLeft=4;spacingRight=4;overflow=hidden;rotatable=0;points=[[0,0.5],[1,0.5]];portConstraint=eastwest;whiteSpace=wrap;html=1;" vertex="1" parent="9SKqTit1ZYMC5olBR_RQ-134">
          <mxGeometry y="52" width="360" height="26" as="geometry" />
        </mxCell>
        <mxCell id="9SKqTit1ZYMC5olBR_RQ-138" value="+ records1: Dictionary&amp;lt;title:string, PasswordRecord&amp;gt;" style="text;strokeColor=none;fillColor=none;align=left;verticalAlign=top;spacingLeft=4;spacingRight=4;overflow=hidden;rotatable=0;points=[[0,0.5],[1,0.5]];portConstraint=eastwest;whiteSpace=wrap;html=1;" vertex="1" parent="9SKqTit1ZYMC5olBR_RQ-134">
          <mxGeometry y="78" width="360" height="26" as="geometry" />
        </mxCell>
        <mxCell id="9SKqTit1ZYMC5olBR_RQ-145" value="+ records2: Dictionary&amp;lt;username:string, PasswordRecord&amp;gt;" style="text;strokeColor=none;fillColor=none;align=left;verticalAlign=top;spacingLeft=4;spacingRight=4;overflow=hidden;rotatable=0;points=[[0,0.5],[1,0.5]];portConstraint=eastwest;whiteSpace=wrap;html=1;" vertex="1" parent="9SKqTit1ZYMC5olBR_RQ-134">
          <mxGeometry y="104" width="360" height="26" as="geometry" />
        </mxCell>
        <mxCell id="9SKqTit1ZYMC5olBR_RQ-139" value="" style="line;strokeWidth=1;fillColor=none;align=left;verticalAlign=middle;spacingTop=-1;spacingLeft=3;spacingRight=3;rotatable=0;labelPosition=right;points=[];portConstraint=eastwest;strokeColor=inherit;" vertex="1" parent="9SKqTit1ZYMC5olBR_RQ-134">
          <mxGeometry y="130" width="360" height="8" as="geometry" />
        </mxCell>
        <mxCell id="9SKqTit1ZYMC5olBR_RQ-140" value="+ authenticate(string): bool" style="text;strokeColor=none;fillColor=none;align=left;verticalAlign=top;spacingLeft=4;spacingRight=4;overflow=hidden;rotatable=0;points=[[0,0.5],[1,0.5]];portConstraint=eastwest;whiteSpace=wrap;html=1;" vertex="1" parent="9SKqTit1ZYMC5olBR_RQ-134">
          <mxGeometry y="138" width="360" height="26" as="geometry" />
        </mxCell>
        <mxCell id="9SKqTit1ZYMC5olBR_RQ-146" value="+ set_master_password(string): bool" style="text;strokeColor=none;fillColor=none;align=left;verticalAlign=top;spacingLeft=4;spacingRight=4;overflow=hidden;rotatable=0;points=[[0,0.5],[1,0.5]];portConstraint=eastwest;whiteSpace=wrap;html=1;" vertex="1" parent="9SKqTit1ZYMC5olBR_RQ-134">
          <mxGeometry y="164" width="360" height="26" as="geometry" />
        </mxCell>
        <mxCell id="9SKqTit1ZYMC5olBR_RQ-147" value="+ test_reset_master_password(): bool" style="text;strokeColor=none;fillColor=none;align=left;verticalAlign=top;spacingLeft=4;spacingRight=4;overflow=hidden;rotatable=0;points=[[0,0.5],[1,0.5]];portConstraint=eastwest;whiteSpace=wrap;html=1;" vertex="1" parent="9SKqTit1ZYMC5olBR_RQ-134">
          <mxGeometry y="190" width="360" height="26" as="geometry" />
        </mxCell>
        <mxCell id="9SKqTit1ZYMC5olBR_RQ-141" value="+ add_record(PasswordRecord): bool" style="text;strokeColor=none;fillColor=none;align=left;verticalAlign=top;spacingLeft=4;spacingRight=4;overflow=hidden;rotatable=0;points=[[0,0.5],[1,0.5]];portConstraint=eastwest;whiteSpace=wrap;html=1;" vertex="1" parent="9SKqTit1ZYMC5olBR_RQ-134">
          <mxGeometry y="216" width="360" height="26" as="geometry" />
        </mxCell>
        <mxCell id="9SKqTit1ZYMC5olBR_RQ-143" value="+ search_record_by_title(string): PasswordRecord" style="text;strokeColor=none;fillColor=none;align=left;verticalAlign=top;spacingLeft=4;spacingRight=4;overflow=hidden;rotatable=0;points=[[0,0.5],[1,0.5]];portConstraint=eastwest;whiteSpace=wrap;html=1;" vertex="1" parent="9SKqTit1ZYMC5olBR_RQ-134">
          <mxGeometry y="242" width="360" height="26" as="geometry" />
        </mxCell>
        <mxCell id="9SKqTit1ZYMC5olBR_RQ-142" value="+ search_record_by_username(string): PasswordRecord" style="text;strokeColor=none;fillColor=none;align=left;verticalAlign=top;spacingLeft=4;spacingRight=4;overflow=hidden;rotatable=0;points=[[0,0.5],[1,0.5]];portConstraint=eastwest;whiteSpace=wrap;html=1;" vertex="1" parent="9SKqTit1ZYMC5olBR_RQ-134">
          <mxGeometry y="268" width="360" height="26" as="geometry" />
        </mxCell>
        <mxCell id="9SKqTit1ZYMC5olBR_RQ-144" value="+ delete_record(PasswordRecord): bool" style="text;strokeColor=none;fillColor=none;align=left;verticalAlign=top;spacingLeft=4;spacingRight=4;overflow=hidden;rotatable=0;points=[[0,0.5],[1,0.5]];portConstraint=eastwest;whiteSpace=wrap;html=1;" vertex="1" parent="9SKqTit1ZYMC5olBR_RQ-134">
          <mxGeometry y="294" width="360" height="26" as="geometry" />
        </mxCell>
        <mxCell id="9SKqTit1ZYMC5olBR_RQ-148" value="by_title&lt;br&gt;by_username" style="whiteSpace=wrap;html=1;aspect=fixed;" vertex="1" parent="1">
          <mxGeometry x="640" y="1380" width="80" height="80" as="geometry" />
        </mxCell>
        <mxCell id="9SKqTit1ZYMC5olBR_RQ-149" style="edgeStyle=orthogonalEdgeStyle;rounded=0;orthogonalLoop=1;jettySize=auto;html=1;entryX=-0.033;entryY=0.507;entryDx=0;entryDy=0;entryPerimeter=0;" edge="1" parent="1" source="9SKqTit1ZYMC5olBR_RQ-106" target="9SKqTit1ZYMC5olBR_RQ-148">
          <mxGeometry relative="1" as="geometry" />
        </mxCell>
        <mxCell id="9SKqTit1ZYMC5olBR_RQ-154" style="edgeStyle=orthogonalEdgeStyle;rounded=0;orthogonalLoop=1;jettySize=auto;html=1;entryX=0;entryY=0.5;entryDx=0;entryDy=0;" edge="1" parent="1" source="9SKqTit1ZYMC5olBR_RQ-151" target="9SKqTit1ZYMC5olBR_RQ-153">
          <mxGeometry relative="1" as="geometry" />
        </mxCell>
        <mxCell id="9SKqTit1ZYMC5olBR_RQ-159" value="YES" style="edgeLabel;html=1;align=center;verticalAlign=middle;resizable=0;points=[];" vertex="1" connectable="0" parent="9SKqTit1ZYMC5olBR_RQ-154">
          <mxGeometry x="-0.1101" relative="1" as="geometry">
            <mxPoint as="offset" />
          </mxGeometry>
        </mxCell>
        <mxCell id="9SKqTit1ZYMC5olBR_RQ-157" style="edgeStyle=orthogonalEdgeStyle;rounded=0;orthogonalLoop=1;jettySize=auto;html=1;entryX=0.5;entryY=0;entryDx=0;entryDy=0;" edge="1" parent="1" source="9SKqTit1ZYMC5olBR_RQ-151" target="9SKqTit1ZYMC5olBR_RQ-155">
          <mxGeometry relative="1" as="geometry" />
        </mxCell>
        <mxCell id="9SKqTit1ZYMC5olBR_RQ-158" value="NO" style="edgeLabel;html=1;align=center;verticalAlign=middle;resizable=0;points=[];" vertex="1" connectable="0" parent="9SKqTit1ZYMC5olBR_RQ-157">
          <mxGeometry x="-0.1194" y="1" relative="1" as="geometry">
            <mxPoint as="offset" />
          </mxGeometry>
        </mxCell>
        <mxCell id="9SKqTit1ZYMC5olBR_RQ-151" value="exists?" style="rhombus;whiteSpace=wrap;html=1;" vertex="1" parent="1">
          <mxGeometry x="800" y="1375" width="90" height="90" as="geometry" />
        </mxCell>
        <mxCell id="9SKqTit1ZYMC5olBR_RQ-152" style="edgeStyle=orthogonalEdgeStyle;rounded=0;orthogonalLoop=1;jettySize=auto;html=1;entryX=-0.03;entryY=0.5;entryDx=0;entryDy=0;entryPerimeter=0;" edge="1" parent="1" source="9SKqTit1ZYMC5olBR_RQ-148" target="9SKqTit1ZYMC5olBR_RQ-151">
          <mxGeometry relative="1" as="geometry" />
        </mxCell>
        <mxCell id="9SKqTit1ZYMC5olBR_RQ-174" style="edgeStyle=orthogonalEdgeStyle;rounded=0;orthogonalLoop=1;jettySize=auto;html=1;entryX=0;entryY=0.5;entryDx=0;entryDy=0;" edge="1" parent="1" source="9SKqTit1ZYMC5olBR_RQ-153" target="9SKqTit1ZYMC5olBR_RQ-173">
          <mxGeometry relative="1" as="geometry" />
        </mxCell>
        <mxCell id="9SKqTit1ZYMC5olBR_RQ-153" value="Password&lt;br&gt;Record" style="whiteSpace=wrap;html=1;aspect=fixed;" vertex="1" parent="1">
          <mxGeometry x="1000" y="1380" width="80" height="80" as="geometry" />
        </mxCell>
        <mxCell id="9SKqTit1ZYMC5olBR_RQ-155" value="Database&lt;br&gt;Error!" style="ellipse;whiteSpace=wrap;html=1;" vertex="1" parent="1">
          <mxGeometry x="805" y="1560" width="80" height="80" as="geometry" />
        </mxCell>
        <mxCell id="9SKqTit1ZYMC5olBR_RQ-165" style="edgeStyle=orthogonalEdgeStyle;rounded=0;orthogonalLoop=1;jettySize=auto;html=1;entryX=0;entryY=0.5;entryDx=0;entryDy=0;" edge="1" parent="1" source="9SKqTit1ZYMC5olBR_RQ-160" target="9SKqTit1ZYMC5olBR_RQ-164">
          <mxGeometry relative="1" as="geometry" />
        </mxCell>
        <mxCell id="9SKqTit1ZYMC5olBR_RQ-166" value="NO" style="edgeLabel;html=1;align=center;verticalAlign=middle;resizable=0;points=[];" vertex="1" connectable="0" parent="9SKqTit1ZYMC5olBR_RQ-165">
          <mxGeometry x="-0.0085" relative="1" as="geometry">
            <mxPoint as="offset" />
          </mxGeometry>
        </mxCell>
        <mxCell id="9SKqTit1ZYMC5olBR_RQ-160" value="exists?" style="rhombus;whiteSpace=wrap;html=1;" vertex="1" parent="1">
          <mxGeometry x="635" y="1255.5" width="90" height="90" as="geometry" />
        </mxCell>
        <mxCell id="9SKqTit1ZYMC5olBR_RQ-161" style="edgeStyle=orthogonalEdgeStyle;rounded=0;orthogonalLoop=1;jettySize=auto;html=1;entryX=-0.046;entryY=0.507;entryDx=0;entryDy=0;entryPerimeter=0;" edge="1" parent="1" source="9SKqTit1ZYMC5olBR_RQ-65" target="9SKqTit1ZYMC5olBR_RQ-160">
          <mxGeometry relative="1" as="geometry" />
        </mxCell>
        <mxCell id="9SKqTit1ZYMC5olBR_RQ-164" value="Add New&lt;br&gt;Record" style="whiteSpace=wrap;html=1;aspect=fixed;" vertex="1" parent="1">
          <mxGeometry x="1000" y="1260.5" width="80" height="80" as="geometry" />
        </mxCell>
        <mxCell id="9SKqTit1ZYMC5olBR_RQ-168" value="Encrypt" style="whiteSpace=wrap;html=1;aspect=fixed;fillColor=#f8cecc;strokeColor=#b85450;" vertex="1" parent="1">
          <mxGeometry x="1160" y="1260.5" width="80" height="80" as="geometry" />
        </mxCell>
        <mxCell id="9SKqTit1ZYMC5olBR_RQ-169" value="Store in&lt;br&gt;Database" style="whiteSpace=wrap;html=1;aspect=fixed;" vertex="1" parent="1">
          <mxGeometry x="1320" y="1260.5" width="80" height="80" as="geometry" />
        </mxCell>
        <mxCell id="9SKqTit1ZYMC5olBR_RQ-171" style="edgeStyle=orthogonalEdgeStyle;rounded=0;orthogonalLoop=1;jettySize=auto;html=1;entryX=-0.036;entryY=0.49;entryDx=0;entryDy=0;entryPerimeter=0;" edge="1" parent="1" source="9SKqTit1ZYMC5olBR_RQ-164" target="9SKqTit1ZYMC5olBR_RQ-168">
          <mxGeometry relative="1" as="geometry" />
        </mxCell>
        <mxCell id="9SKqTit1ZYMC5olBR_RQ-172" style="edgeStyle=orthogonalEdgeStyle;rounded=0;orthogonalLoop=1;jettySize=auto;html=1;entryX=-0.034;entryY=0.5;entryDx=0;entryDy=0;entryPerimeter=0;" edge="1" parent="1" source="9SKqTit1ZYMC5olBR_RQ-168" target="9SKqTit1ZYMC5olBR_RQ-169">
          <mxGeometry relative="1" as="geometry" />
        </mxCell>
        <mxCell id="9SKqTit1ZYMC5olBR_RQ-176" style="edgeStyle=orthogonalEdgeStyle;rounded=0;orthogonalLoop=1;jettySize=auto;html=1;entryX=0;entryY=0.5;entryDx=0;entryDy=0;" edge="1" parent="1" source="9SKqTit1ZYMC5olBR_RQ-173" target="9SKqTit1ZYMC5olBR_RQ-175">
          <mxGeometry relative="1" as="geometry" />
        </mxCell>
        <mxCell id="9SKqTit1ZYMC5olBR_RQ-173" value="Decrypt" style="whiteSpace=wrap;html=1;aspect=fixed;fillColor=#f8cecc;strokeColor=#b85450;" vertex="1" parent="1">
          <mxGeometry x="1160" y="1380" width="80" height="80" as="geometry" />
        </mxCell>
        <mxCell id="9SKqTit1ZYMC5olBR_RQ-175" value="Show on&lt;br&gt;Screen" style="whiteSpace=wrap;html=1;aspect=fixed;" vertex="1" parent="1">
          <mxGeometry x="1320" y="1380" width="80" height="80" as="geometry" />
        </mxCell>
        <mxCell id="9SKqTit1ZYMC5olBR_RQ-177" value="To Research" style="whiteSpace=wrap;html=1;aspect=fixed;fillColor=#f8cecc;strokeColor=#b85450;" vertex="1" parent="1">
          <mxGeometry x="-160" y="960" width="80" height="80" as="geometry" />
        </mxCell>
        <mxCell id="9SKqTit1ZYMC5olBR_RQ-178" value="Future&lt;br&gt;features" style="whiteSpace=wrap;html=1;aspect=fixed;fillColor=#f5f5f5;fontColor=#333333;strokeColor=#666666;" vertex="1" parent="1">
          <mxGeometry x="-160" y="1060" width="80" height="80" as="geometry" />
        </mxCell>
      </root>
    </mxGraphModel>
  </diagram>
</mxfile>
